<svg width="42" height="42" viewBox="0 0 42 42" fill="none" xmlns="http://www.w3.org/2000/svg">
<path d="M41.1592 18.7897C40.8858 19.6035 40.7531 20.5057 40.311 21.2147C38.952 23.3957 38.5492 25.6274 38.9913 28.203C39.5087 31.2207 38.4543 32.9203 35.5823 33.9748C33.3178 34.8065 31.705 36.1525 30.4901 38.2385C28.9362 40.9074 27.0663 41.5001 24.1256 40.6209C24.0208 40.5898 23.9094 40.5767 23.8128 40.5324C21.7612 39.609 19.7325 39.6695 17.6563 40.5243C16.8966 40.837 16.0173 40.9893 15.1937 40.986C13.5269 40.9794 12.2497 40.1509 11.3262 38.7674C8.59016 34.6641 9.84603 35.7579 5.35962 33.7603C3.23922 32.8171 2.21422 31.0357 2.43036 28.7204C2.47129 28.2882 2.49749 27.8493 2.58591 27.4253C2.97397 25.593 2.79549 23.8705 1.72301 22.2757C1.407 21.8058 1.18923 21.2671 0.955082 20.748C0.106922 18.8618 0.455683 16.8691 1.9064 15.4053C2.59573 14.7094 3.30799 14.0348 4.04317 13.3864C4.76853 12.7462 5.19752 11.9668 5.39564 11.0286C5.59049 10.0985 5.80499 9.17016 6.05059 8.25323C6.60894 6.16557 8.34292 4.79018 10.4993 4.68375C11.5047 4.63463 12.5231 4.64936 13.5121 4.49054C14.1851 4.38247 14.8711 4.11067 15.4573 3.75699C16.2907 3.25268 17.0325 2.59446 17.825 2.01974C19.6785 0.673816 21.8267 0.654168 23.6638 1.99682C27.8097 5.02596 26.0921 4.31698 31.1434 4.68866C33.2179 4.84094 34.911 6.19832 35.4579 8.21557C35.7133 9.1587 35.8197 10.1526 36.1636 11.0597C36.4714 11.8702 36.9282 12.6627 37.4751 13.3356C38.0875 14.0888 38.8882 14.6881 39.584 15.3774C40.5321 16.3173 41.0086 17.4766 41.1625 18.7897H41.1592ZM37.7535 28.4715C37.0903 26.1628 37.3834 23.5218 38.9602 20.9478C40.2865 18.7816 40.0212 17.3914 38.0744 15.7868C36.0162 14.0905 34.6801 12.088 34.405 9.4174C34.3936 9.31097 34.3493 9.20782 34.3248 9.10139C33.827 6.96134 32.7513 5.974 30.567 6.00347C27.8375 6.03949 25.4011 5.42548 23.4199 3.4508C23.3626 3.3935 23.2905 3.35256 23.225 3.30344C21.4288 1.96079 20.0796 1.96734 18.2638 3.32473C14.5535 6.09844 15.4426 5.68746 10.7515 5.98874C10.6696 5.99365 10.5878 5.99201 10.5059 5.99692C8.9553 6.09189 7.7682 7.00718 7.34576 8.50375C7.07232 9.4698 6.85291 10.4522 6.64169 11.4346C6.39117 12.5923 5.82955 13.5518 4.947 14.3394C4.25767 14.955 3.58143 15.587 2.92157 16.2354C1.73447 17.4029 1.48723 18.8323 2.20112 20.342C2.46802 20.9069 2.73327 21.4767 3.0542 22.0105C3.95803 23.5168 4.34445 25.0969 3.9613 26.8505C3.81721 27.5104 3.79593 28.1981 3.73207 28.8743C3.56997 30.5985 4.26586 31.8625 5.84101 32.5421C10.4928 34.5495 9.64627 33.8405 12.4331 38.0535C13.4024 39.5173 14.7925 40.0134 16.4758 39.5255C21.2618 38.1386 20.0764 38.0404 25.0687 39.532C26.7012 40.0199 28.0946 39.5009 29.0557 38.0977C29.578 37.3347 30.0856 36.5618 30.5719 35.7759C31.1974 34.7689 32.0554 34.0615 33.1524 33.6162C34.0333 33.2592 34.911 32.8908 35.7722 32.4897C37.2197 31.8151 37.9205 30.5854 37.7567 28.4699L37.7535 28.4715Z" fill="white" stroke="white" stroke-width="0.5"/>
<path d="M20.7936 7.64574C28.129 7.66702 34.1382 13.6958 34.1284 21.0264C34.1202 28.3864 28.039 34.4234 20.679 34.3759C13.3435 34.33 7.35565 28.2832 7.38512 20.9527C7.41459 13.6254 13.4614 7.62281 20.7936 7.6441V7.64574ZM32.8152 20.9985C32.807 14.3819 27.3644 8.95072 20.7461 8.95891C14.1278 8.96546 8.69011 14.4114 8.69993 21.0231C8.70975 27.6397 14.154 33.0709 20.769 33.0644C27.3857 33.0578 32.8234 27.6119 32.8152 21.0002V20.9985Z" fill="white" stroke="white" stroke-width="0.5"/>
<path d="M18.9843 21.1116C20.9246 19.2303 22.711 17.4832 24.5138 15.7525C25.9661 14.3558 28.1405 14.8896 28.6694 16.7644C28.9199 17.6518 28.7022 18.4542 28.0718 19.0976C25.6747 21.5439 23.2726 23.9852 20.8362 26.3922C19.8865 27.3304 18.4948 27.3255 17.5222 26.402C16.1238 25.0724 14.7583 23.7069 13.4254 22.3118C12.4774 21.3196 12.5282 19.8721 13.4549 18.9306C14.3915 17.9793 15.8766 17.958 16.9065 18.8979C17.288 19.245 17.6515 19.6134 18.0036 19.9917C18.354 20.3683 18.6814 20.7661 18.9843 21.1133V21.1116ZM27.5282 17.5028C27.4086 17.1967 27.3579 16.9494 27.2269 16.7562C26.7864 16.1094 26.0185 16.1127 25.3488 16.7824C23.5624 18.5688 21.7908 20.3683 20.011 22.1612C19.2709 22.9062 19.0809 22.9095 18.3556 22.189C17.6237 21.462 16.9032 20.7219 16.1615 20.0031C15.5409 19.4022 14.8549 19.3662 14.3751 19.8803C13.9052 20.3846 13.956 20.9921 14.5569 21.5996C15.7587 22.8178 16.9687 24.0278 18.1869 25.2296C18.9074 25.9402 19.4395 25.9533 20.1469 25.2444C22.4294 22.9553 24.6988 20.6548 26.9616 18.3461C27.1958 18.107 27.3431 17.7812 27.5265 17.5028H27.5282Z" fill="white" stroke="white" stroke-width="0.5"/>
</svg>
