<svg width="51" height="48" viewBox="0 0 51 48" fill="none" xmlns="http://www.w3.org/2000/svg">
<path d="M44.8499 33.7571C43.2359 35.6234 41.7765 37.3098 40.051 39.3033C39.9199 40.6747 39.7497 42.4824 39.5756 44.2881C39.3819 46.2993 38.0477 47.6726 36.1696 47.7939C34.3834 47.9093 32.8516 46.7023 32.3821 44.8007C32.2353 44.2079 32.1082 43.6112 31.9928 43.1065C29.9445 43.3002 27.9842 43.6308 26.0239 43.6308C24.0891 43.6308 22.1562 43.2982 20.0903 43.1006C19.9729 43.578 19.8243 44.1942 19.6717 44.8085C19.206 46.6925 17.7642 47.8624 15.9918 47.7959C14.1704 47.7274 12.752 46.4205 12.5153 44.4681C12.2923 42.6311 12.173 40.7823 12.0106 38.9571C8.23874 35.8406 5.89895 31.9709 5.48029 26.9568C4.07758 27.1251 2.71988 27.0409 1.75735 25.9747C1.23696 25.3976 0.830042 24.6327 0.620712 23.8814C0.239224 22.512 0.802653 21.0662 1.76322 20.5361C2.67879 20.7454 2.69053 21.2893 2.36186 22.0581C1.94516 23.0304 2.02537 24.0008 2.804 24.7677C3.54741 25.4993 4.45907 25.5737 5.44703 25.1844C6.44086 17.1614 11.4002 12.515 18.6328 9.73896C18.1066 7.08028 18.6152 4.65441 20.5207 2.6335C21.9978 1.06646 23.8465 0.266312 25.9965 0.244792C30.8385 0.199796 33.7691 3.88947 33.5148 9.71157C34.9136 10.3454 36.3241 10.9852 37.5097 11.5232C39.0082 11.081 40.3405 10.545 41.7217 10.3122C43.8326 9.95807 44.7853 10.8306 44.6093 12.9396C44.4919 14.3462 44.0869 15.7293 43.8443 16.954C44.7579 19.0434 45.6344 21.0545 46.593 23.2495C46.8082 23.2495 47.2543 23.226 47.6964 23.2534C49.2086 23.3493 50.4059 24.5035 50.4568 26.0197C50.5135 27.6748 50.5155 29.3357 50.4568 30.9908C50.4001 32.5383 49.1676 33.6906 47.5849 33.7493C46.6126 33.7864 45.6363 33.7551 44.8479 33.7551L44.8499 33.7571ZM41.9447 17.1535C42.4651 15.518 43.2007 13.8434 42.9659 11.9399C41.3813 11.7344 40.0138 12.112 38.84 12.9904C38.079 13.5597 37.5175 13.4756 36.7389 13.0354C35.5142 12.3409 34.1937 11.8127 32.9279 11.2199C32.4329 11.9555 32.0495 12.5248 31.67 13.0902C32.5131 13.6262 33.6693 13.4423 34.0684 14.5066C33.8709 15.4378 33.3192 15.4867 32.5973 15.2011C30.4551 14.354 28.2248 14.0116 25.9261 14.0097C23.4552 14.0058 21.0959 14.532 18.5918 15.5161C18.3746 15.0642 18.175 14.6474 17.9207 14.1114C18.9067 13.7123 19.6658 13.4052 20.4444 13.0902C20.0023 12.4602 19.6149 11.9086 19.21 11.3314C16.8917 12.0592 14.8043 13.1528 12.9535 14.6651C9.64732 17.3668 7.47185 20.7395 7.16471 25.0885C6.80474 30.1965 8.96651 34.2168 12.7736 37.4507C13.3057 37.9026 13.6128 38.3467 13.6598 39.0705C13.7752 40.8528 13.9532 42.6331 14.1587 44.4075C14.278 45.4326 14.9921 46.0723 15.9526 46.1506C16.9367 46.2327 17.7799 45.6478 18.0596 44.6364C18.2494 43.9497 18.355 43.2376 18.5389 42.5489C18.6661 42.0716 18.8656 41.6138 19.0476 41.1051C19.5445 41.1736 19.9005 41.1854 20.237 41.2714C24.1243 42.2848 28.0077 42.2848 31.8949 41.2636C32.2745 41.1638 32.6912 41.1971 33.0335 41.1717C33.1822 41.424 33.28 41.5258 33.3074 41.6451C33.5246 42.5274 33.7241 43.4136 33.9354 44.2979C34.2347 45.55 35.0055 46.2151 36.0757 46.1564C37.1908 46.0938 37.8892 45.2976 37.9988 43.981C38.1357 42.3298 38.2296 40.6728 38.4526 39.0314C38.5231 38.513 38.8322 37.9124 39.2234 37.5739C40.8159 36.2006 42.1834 34.659 43.2261 32.8298C43.3513 32.6087 43.5254 32.415 43.7289 32.1372C44.9164 32.1372 46.1157 32.1607 47.3149 32.1294C48.3909 32.102 48.8506 31.6325 48.878 30.5604C48.9035 29.5861 48.8839 28.6099 48.8839 27.6357C48.8839 24.9692 48.7998 24.8831 46.1802 24.8518C46.147 24.8518 46.1157 24.8498 46.0824 24.8518C45.3057 24.9202 44.8949 24.6151 44.756 23.7973C44.6093 22.9385 44.398 22.0659 44.0439 21.2756C43.4394 19.9198 42.7018 18.6208 41.9447 17.1516V17.1535ZM29.7371 12.517C31.6856 11.1241 32.5601 8.46342 31.7404 5.99842C30.9128 3.50994 28.5418 1.81574 25.9613 1.86856C23.3359 1.92138 21.0372 3.65667 20.2879 6.15102C19.5484 8.61211 20.4796 11.259 22.3714 12.5189H29.7371V12.517Z" fill="white"/>
<path d="M39.8455 22.8718C39.9687 22.2575 39.5598 21.25 40.6828 21.2774C41.7568 21.3028 41.4614 22.2732 41.4692 22.9286C41.479 23.5957 41.7118 24.5699 40.6495 24.5504C39.5911 24.5308 39.9433 23.5389 39.8455 22.8718Z" fill="white"/>
<path d="M26.0828 12.1178C23.7176 12.1354 21.7984 10.2397 21.7906 7.87843C21.7827 5.52885 23.7136 3.58424 26.0515 3.59206C28.3502 3.59793 30.2635 5.48777 30.3105 7.79822C30.3574 10.1263 28.4245 12.1022 26.0828 12.1198V12.1178ZM25.9947 5.24127C24.5236 5.26279 23.3459 6.4816 23.3928 7.93516C23.4378 9.34765 24.6331 10.5136 26.0397 10.5156C27.4972 10.5195 28.673 9.32026 28.6652 7.84321C28.6573 6.34856 27.4992 5.21779 25.9967 5.24127H25.9947Z" fill="white"/>
</svg>
