<svg width="41" height="40" viewBox="0 0 41 40" fill="none" xmlns="http://www.w3.org/2000/svg">
<path d="M6.66227 22.5485C4.68953 21.3344 3.28888 19.6959 1.96906 18.0372C0.733184 16.4842 1.58197 14.1555 3.45366 13.4482C3.68995 13.3595 3.93557 13.2958 4.2356 13.2025C3.68218 12.1392 3.55004 11.0728 4.10813 10.0064C4.65378 8.96326 5.57874 8.46269 6.7089 8.29946C5.89431 5.21988 8.40337 3.22228 11.0663 4.17211C11.3757 2.72637 12.1405 1.67705 13.678 1.38945C15.1921 1.10652 16.2461 1.89624 17.2581 3.10102C18.0074 2.30353 18.6961 1.53558 19.4236 0.804939C20.3128 -0.0873774 21.0948 -0.213297 22.2312 0.305926C22.982 0.649483 23.7266 1.00703 24.4682 1.35681C26.5559 0.0665237 29.0308 0.817375 29.6899 3.58293C30.96 3.20362 32.1866 3.2145 33.2094 4.20787C34.2044 5.17325 34.3847 6.34072 33.9572 7.71339C35.1293 7.86419 36.0776 8.37097 36.6295 9.43429C37.1876 10.5085 37.0414 11.5749 36.5036 12.6149C38.4561 13.2119 39.3624 14.3078 39.2909 15.9525C39.2536 16.8262 38.8525 17.5242 38.254 18.1383C36.9404 19.4876 35.633 20.8447 34.1266 22.404C35.9688 24.1622 37.7861 25.88 39.5816 27.6226C39.9174 27.9491 40.5858 28.3159 40.02 28.8725C39.4697 29.4135 39.1121 28.7652 38.7639 28.431C36.973 26.7163 35.1931 24.9907 33.3307 23.1952C32.5643 23.9881 31.6953 24.8866 30.8667 25.7432C29.934 25.4913 29.8516 25.1524 30.4828 24.4964C32.813 22.0775 35.1449 19.6617 37.4829 17.2491C38.0534 16.6599 38.2711 15.9774 38.0301 15.1924C37.8078 14.4648 37.2839 13.9347 36.544 13.899C35.9999 13.8726 35.4433 14.185 34.8837 14.3125C34.5759 14.3824 34.251 14.3778 33.9339 14.4073C33.9852 14.0902 33.9416 13.7078 34.1064 13.4699C34.4111 13.03 34.8495 12.6833 35.2117 12.2807C36.0247 11.3775 36.0061 10.2116 35.1806 9.44517C34.3878 8.70831 33.2374 8.76427 32.4011 9.58042C32.0016 9.97061 31.6005 10.3608 31.2336 10.7184C30.433 10.3701 30.3382 10.0748 30.8092 9.55088C31.3098 8.99435 31.8523 8.47513 32.3622 7.92637C33.2001 7.02628 33.225 5.86813 32.4384 5.08308C31.6269 4.27316 30.4454 4.3229 29.5454 5.21366C29.0137 5.74066 28.496 6.28165 27.9644 6.80709C27.896 6.87393 27.7794 6.89103 27.5866 6.97342C27.4047 6.80864 27.198 6.62209 26.9073 6.35937C27.2539 5.96452 27.5322 5.63961 27.8198 5.32248C28.6344 4.4255 28.6577 3.25026 27.8711 2.47764C27.0332 1.65528 25.8797 1.70347 24.9889 2.62066C23.6411 4.00888 22.3058 5.40954 20.9751 6.7962C22.211 9.9504 21.2549 11.5905 17.9701 12.0009C17.6374 14.5099 16.742 15.3696 14.5408 15.4862C14.0806 16.4111 13.7775 17.3143 13.2334 18.0341C12.6442 18.8129 11.6835 19.0073 10.6559 18.9155C10.6357 19.1409 10.614 19.3368 10.6 19.5327C10.5067 20.8416 9.83512 21.7308 8.66454 22.2998C8.31476 22.4693 8.00385 22.7475 7.71781 23.0211C6.8426 23.8606 6.00469 24.7374 5.12481 25.569C3.98065 26.6526 2.81785 27.7174 1.64415 28.7683C1.07985 29.2736 0.733184 29.1383 0.5 28.2724C2.52403 26.393 4.5916 24.4731 6.66227 22.5485ZM14.1972 7.27967C13.7884 8.08493 13.5101 8.15644 12.9955 7.65121C12.369 7.03716 11.7783 6.3858 11.1565 5.76864C10.2984 4.91674 9.11847 4.867 8.32098 5.63029C7.51572 6.40135 7.50017 7.58281 8.33963 8.4658C9.99213 10.2053 11.6586 11.9325 13.3438 13.6425C14.1817 14.4928 15.3989 14.499 16.1777 13.7155C16.9457 12.9429 16.9394 11.8065 16.1513 10.9329C15.8233 10.5691 15.4113 10.266 15.1517 9.86024C14.9994 9.62239 15.0724 9.23997 15.0429 8.92284C15.3585 8.97569 15.7424 8.93528 15.9772 9.10317C16.3891 9.40009 16.6954 9.84003 17.0731 10.1898C17.8737 10.9344 19.0521 10.9375 19.8014 10.2178C20.5616 9.4887 20.5818 8.38496 19.8449 7.51596C19.4734 7.57815 19.0972 7.68852 18.7179 7.69629C17.4307 7.72427 16.2896 7.33097 15.5948 6.1977C14.9978 5.22299 15.6865 4.50323 16.3005 3.79435C16.1451 3.62802 15.9927 3.45546 15.831 3.29068C14.8828 2.3253 13.7433 2.22425 12.8914 3.02796C12.0473 3.82544 12.0877 5.00535 12.9893 5.97695C13.3888 6.40756 13.7884 6.83818 14.1957 7.27812L14.1972 7.27967ZM7.13641 9.46382C6.07775 9.53844 5.44194 9.88667 5.1046 10.6422C4.74083 11.4583 4.90095 12.2092 5.51811 12.8512C6.87835 14.2674 8.23548 15.6852 9.61282 17.0843C10.4725 17.9564 11.6415 17.9937 12.4452 17.2164C13.2629 16.4267 13.2738 15.2888 12.4203 14.384C11.0725 12.9569 9.71697 11.5361 8.31632 10.1603C7.9541 9.80427 7.41778 9.62394 7.13641 9.46227V9.46382ZM4.86986 14.4027C3.76613 14.4244 3.14275 14.7835 2.79608 15.5344C2.43698 16.3132 2.55357 17.0656 3.13653 17.6905C4.10502 18.7305 5.09061 19.7566 6.10263 20.753C6.90789 21.5458 8.04427 21.5412 8.82155 20.8074C9.61748 20.0566 9.66101 18.8782 8.87596 18.031C7.92768 17.0081 6.96851 15.9914 5.96116 15.0291C5.61139 14.6949 5.09994 14.5301 4.86986 14.4027ZM16.5275 5.49038C16.7032 5.67848 16.871 5.93342 17.1042 6.09665C18.0743 6.78377 19.3848 6.66407 20.2895 5.79818C20.8849 5.22921 21.4399 4.61827 22.012 4.02598C22.5576 3.46168 23.1017 2.89582 23.6893 2.28643C22.9229 1.92267 22.2918 1.55268 21.614 1.33193C21.2751 1.22156 20.703 1.234 20.4823 1.44697C19.1671 2.70927 17.9219 4.04619 16.5275 5.48882V5.49038Z" fill="white"/>
<path d="M29.135 27.0646C26.6803 28.6036 23.6552 28.7326 21.5472 30.8779C24.0982 33.5595 26.6679 36.2613 29.5065 39.2445C29.1956 39.5135 28.9718 39.7078 28.6344 40.0001C25.8315 37.065 23.237 34.3477 20.6145 31.6008C18.0121 34.3555 15.4487 37.0697 12.8199 39.8524C12.5059 39.5741 12.2976 39.3891 12.0317 39.1544C12.2696 38.8404 12.4297 38.5838 12.6334 38.3662C14.8579 35.9924 17.0903 33.6233 19.3211 31.2541C21.0373 29.4306 23.0862 28.145 25.4756 27.3755C26.3554 27.0926 27.1918 26.6775 28.0608 26.3604C28.3002 26.2733 28.6469 26.2205 28.835 26.3324C29.0075 26.435 29.0308 26.7848 29.135 27.063V27.0646Z" fill="white"/>
</svg>
