<svg width="41" height="40" viewBox="0 0 41 40" fill="none" xmlns="http://www.w3.org/2000/svg">
<path d="M22.5066 33.8843V37.6081H35.6599C35.6599 36.948 35.6599 36.3396 35.6599 35.7313C35.6599 35.4193 35.5784 35.0665 35.6944 34.8031C35.8214 34.5146 36.1491 34.0975 36.3607 34.1132C36.6571 34.1367 37.1478 34.4911 37.1667 34.7341C37.2404 35.714 37.2529 36.7175 37.1212 37.6896C36.9973 38.6069 36.2353 39.2089 35.2993 39.2152C31.1302 39.2387 26.9595 39.234 22.7904 39.2152C22.4172 39.2136 22.0441 39.0365 21.8355 38.9832C21.0641 39.0945 20.4322 39.2607 19.7988 39.2638C16.0719 39.2889 12.3449 39.2779 8.61797 39.2748C6.75841 39.2732 6.06696 38.5818 6.06539 36.7316C6.06539 32.9529 6.06383 29.1727 6.06539 25.394C6.06539 23.6379 6.7788 22.923 8.52546 22.9198C9.69826 22.9167 10.8711 22.9339 12.0439 22.9151C12.773 22.9026 13.1022 23.2381 13.0897 23.9515C13.0834 24.3168 13.074 24.6822 13.0991 25.0459C13.1524 25.8064 13.6087 26.2485 14.2813 26.2219C14.91 26.1983 15.3287 25.7421 15.3694 25.0302C15.3757 24.9268 15.371 24.8217 15.3726 24.7182C15.3809 23.5193 15.9966 22.9198 17.2196 22.9198C18.4112 22.9198 19.6012 22.9198 20.843 22.9198C20.843 21.4491 20.8399 20.0474 20.843 18.6472C20.8462 17.6798 21.072 17.4635 22.0425 17.454C22.4078 17.4509 22.7779 17.4854 23.1353 17.4352C23.75 17.349 24.1278 16.9805 24.1435 16.3393C24.1592 15.6964 23.8095 15.2982 23.1871 15.2057C22.7528 15.1414 22.3043 15.1586 21.8622 15.1649C21.1347 15.1743 20.8289 14.8199 20.8368 14.105C20.8525 12.802 20.8227 11.4975 20.8477 10.1961C20.8713 9.00766 21.6709 8.12492 22.8468 8.11552C26.9642 8.08259 31.0816 8.08259 35.1989 8.11552C36.4109 8.12492 37.1902 9.00766 37.2184 10.262C37.2419 11.3266 37.2231 12.3912 37.2231 13.5421C38.3457 13.5248 39.39 13.7318 39.9858 14.7039C40.2947 15.2088 40.5001 15.8642 40.5001 16.4521C40.4985 17.9715 39.4276 18.7978 37.2999 19.0706C37.2215 20.6009 37.1447 22.1374 37.0459 24.0816C37.5038 25.0224 37.187 26.4727 37.1604 27.887C37.1557 28.1112 36.6195 28.511 36.356 28.4906C36.1052 28.4703 35.7304 28.0265 35.6912 27.7333C35.594 26.9901 35.6662 26.225 35.6489 25.4708C35.6426 25.1729 35.5784 24.875 35.5345 24.5316H31.8248C31.5096 26.7879 30.6049 27.807 28.968 27.7772C27.375 27.7474 26.4389 26.6389 26.2665 24.5301H22.5239V28.3762C23.485 28.3417 24.4947 28.5 25.089 29.3969C25.4292 29.9096 25.6707 30.5822 25.6895 31.1922C25.735 32.757 24.6954 33.5817 22.5003 33.889L22.5066 33.8843ZM22.5191 22.8054C22.8437 22.8414 23.1181 22.8963 23.3925 22.8979C24.4869 22.9088 25.5813 22.8979 26.6741 22.9026C27.7168 22.9073 27.8767 23.075 27.883 24.1459C27.8846 24.4579 27.8626 24.7731 27.8924 25.0835C27.9551 25.7389 28.3157 26.1419 28.9837 26.1999C29.6014 26.2532 30.1047 25.7907 30.1753 25.1055C30.2145 24.7182 30.2035 24.3247 30.1878 23.9343C30.1581 23.2099 30.4873 22.8853 31.2164 22.8979C32.3626 22.9167 33.5087 22.9104 34.6548 22.8979C34.9512 22.8947 35.2475 22.8273 35.5956 22.7818C35.6207 22.4181 35.6568 22.139 35.6583 21.8599C35.6646 20.7138 35.6709 19.5676 35.6583 18.4215C35.6505 17.7316 35.9703 17.4117 36.6571 17.4352C36.9691 17.4462 37.2827 17.4431 37.5947 17.4352C38.4508 17.4148 38.9776 16.9649 38.9698 16.2734C38.9619 15.5835 38.4414 15.1586 37.568 15.1351C37.4379 15.132 37.3078 15.1351 37.1776 15.1351C35.7022 15.132 35.6615 15.0912 35.6615 13.5781C35.6615 12.5888 35.6693 11.5979 35.6552 10.6085C35.652 10.3373 35.5799 10.066 35.5407 9.79476H22.4674V13.528C24.6766 13.8024 25.7397 14.6537 25.6989 16.2326C25.6832 16.819 25.4621 17.4682 25.1423 17.9652C24.5402 18.8981 23.5163 19.0784 22.4141 19.0423C22.4141 20.1587 22.411 21.1967 22.4172 22.2346C22.4172 22.3852 22.469 22.5357 22.5191 22.8101V22.8054ZM17.0032 24.563C16.7461 26.7252 15.9417 27.7161 14.402 27.7898C12.7463 27.8682 11.9545 27.009 11.4198 24.563H7.71485V37.594H20.8054C20.8227 37.2349 20.843 36.9794 20.843 36.7238C20.8462 35.6027 20.8383 34.4817 20.8477 33.3606C20.854 32.4685 21.0641 32.2678 21.9657 32.2474C22.3043 32.2395 22.6446 32.2631 22.9817 32.2364C23.739 32.18 24.1796 31.7206 24.1514 31.0479C24.1247 30.4098 23.681 30.0005 22.9613 29.9629C22.701 29.9488 22.4408 29.9598 22.1789 29.9598C21.0437 29.9566 20.8477 29.7685 20.8446 28.6615C20.8415 27.5922 20.8493 26.5245 20.8399 25.4551C20.8383 25.1808 20.7929 24.9048 20.7599 24.563H17.0016H17.0032Z" fill="white"/>
<path d="M16.8683 10.9786C16.8683 11.9178 16.8714 12.8726 16.8683 13.8275C16.862 15.6196 16.1345 16.355 14.3659 16.3565C13.4063 16.3565 12.4452 16.3565 11.4966 16.3565C11.056 18.7837 10.2297 19.7056 8.58184 19.6617C6.99354 19.6178 6.1453 18.5971 5.9054 16.3565C4.88469 16.3565 3.84986 16.3612 2.8166 16.3565C1.28788 16.3487 0.50392 15.571 0.502352 14.0533C0.499216 10.146 0.499216 6.23875 0.502352 2.3315C0.50392 0.798071 1.26279 0.0141113 2.80092 0.00940752C6.70818 -0.00313584 10.6154 -0.00313584 14.5211 0.00940752C16.0922 0.0141113 16.8495 0.798071 16.8652 2.38324C16.8746 3.36946 16.8667 4.35411 16.8667 5.4203C17.98 5.45479 19.0399 5.61629 19.6357 6.60251C19.9305 7.0917 20.1531 7.71103 20.1594 8.27391C20.1766 9.81988 19.1387 10.6446 16.8667 10.9786H16.8683ZM15.2941 1.75293C14.0413 1.43621 2.66608 1.53656 2.12829 1.82663V14.6836C2.44971 14.7228 2.72096 14.7808 2.99378 14.7839C4.00979 14.7949 5.0258 14.7886 6.04338 14.7886C7.40747 14.7886 7.53291 14.9109 7.53291 16.2405C7.53291 16.344 7.53291 16.449 7.53291 16.5525C7.53761 17.5732 7.91861 18.0891 8.66808 18.0922C9.42382 18.0954 9.81109 17.5827 9.8252 16.5635C9.8252 16.4851 9.8252 16.4067 9.8252 16.3283C9.82834 14.856 9.89733 14.7886 11.3743 14.7871C12.6161 14.7871 13.8595 14.7871 15.1702 14.7871C15.2204 14.4029 15.2847 14.1301 15.2878 13.8557C15.3004 12.8397 15.2925 11.8221 15.2925 10.8061C15.2925 9.42633 15.396 9.32128 16.7429 9.31972C17.0031 9.31972 17.2666 9.33853 17.5237 9.31188C18.1932 9.24289 18.5883 8.8415 18.5977 8.18925C18.6071 7.57462 18.2434 7.15285 17.6115 7.07289C17.174 7.01801 16.7272 7.03055 16.285 7.03526C15.5983 7.04153 15.2831 6.70913 15.291 6.02865C15.3004 5.16786 15.291 4.30864 15.291 3.44786C15.291 2.88184 15.291 2.31739 15.291 1.75137L15.2941 1.75293Z" fill="white"/>
<path d="M36.2557 32.2162C36.0613 31.9057 35.7038 31.5858 35.7211 31.2864C35.7352 31.0324 36.1852 30.609 36.4345 30.6153C36.701 30.6231 37.1526 31.0339 37.1651 31.2879C37.1808 31.5874 36.8123 31.9073 36.6116 32.2177C36.4925 32.2177 36.3749 32.2177 36.2557 32.2177V32.2162Z" fill="white"/>
<path d="M8.43615 8.58593C9.09311 7.73611 9.73125 6.92236 10.3568 6.09921C10.7034 5.64294 11.1142 5.2933 11.6535 5.73231C12.1897 6.16819 11.9263 6.64484 11.5783 7.09013C10.8272 8.05127 10.095 9.02651 9.34241 9.98608C8.80304 10.6744 8.46437 10.6995 7.79957 10.1241C7.34801 9.73364 6.89959 9.3401 6.46057 8.93557C6.10779 8.61101 6.00901 8.2159 6.3367 7.83333C6.68635 7.42567 7.10812 7.4633 7.50794 7.78629C7.80898 8.02932 8.09434 8.29116 8.43615 8.58749V8.58593Z" fill="white"/>
</svg>
